# Blender 5.0.1
# www.blender.org
mtllib flag.mtl
o flag
v -0.035000 0.100000 -0.035000
v 0.035000 0.100000 -0.035000
v -0.025550 0.900000 -0.025550
v 0.025550 0.900000 -0.025550
v 0.035000 0.100000 0.035000
v 0.025550 0.900000 0.025550
v -0.025550 0.900000 0.025550
v -0.035000 0.100000 0.035000
v -0.031000 0.565491 -0.056000
v 0.031000 0.565491 -0.056000
v -0.031000 0.615491 -0.056000
v 0.031000 0.615491 -0.056000
v -0.056000 0.565491 -0.031000
v -0.056000 0.615491 -0.031000
v -0.056000 0.565491 0.031000
v -0.056000 0.615491 0.031000
v 0.031000 0.565491 0.056000
v -0.031000 0.565491 0.056000
v 0.031000 0.615491 0.056000
v -0.031000 0.615491 0.056000
v 0.056000 0.615491 -0.031000
v 0.056000 0.565491 -0.031000
v 0.056000 0.615491 0.031000
v 0.056000 0.565491 0.031000
v -0.031000 0.795774 -0.056000
v 0.031000 0.795774 -0.056000
v -0.031000 0.845774 -0.056000
v 0.031000 0.845774 -0.056000
v -0.056000 0.795774 -0.031000
v -0.056000 0.845774 -0.031000
v 0.056000 0.845774 -0.031000
v 0.056000 0.795774 -0.031000
v 0.031000 0.795774 0.056000
v -0.031000 0.795774 0.056000
v 0.031000 0.845774 0.056000
v -0.031000 0.845774 0.056000
v 0.056000 0.845774 0.031000
v 0.056000 0.795774 0.031000
v -0.056000 0.795774 0.031000
v -0.056000 0.845774 0.031000
v -0.031000 -0.000000 -0.056000
v 0.031000 -0.000000 -0.056000
v -0.031000 0.100000 -0.056000
v 0.031000 0.100000 -0.056000
v -0.056000 -0.000000 -0.031000
v -0.056000 0.100000 -0.031000
v -0.056000 0.000000 0.031000
v -0.056000 0.100000 0.031000
v 0.031000 0.000000 0.056000
v -0.031000 0.000000 0.056000
v 0.031000 0.100000 0.056000
v -0.031000 0.100000 0.056000
v 0.056000 0.100000 -0.031000
v 0.056000 -0.000000 -0.031000
v 0.056000 0.100000 0.031000
v 0.056000 0.000000 0.031000
v 0.211748 0.845774 0.036803
v 0.211748 0.565491 0.036803
v 0.189720 0.845774 0.018402
v 0.189720 0.565491 0.018402
v 0.167693 0.565491 -0.000000
v 0.167693 0.845774 -0.000000
v 0.267594 0.565491 0.050000
v 0.267594 0.845774 0.050000
v 0.111846 0.565491 -0.013197
v 0.111846 0.845774 -0.013197
v 0.056000 0.565491 -0.000000
v 0.056000 0.845774 -0.000000
v 0.323441 0.565491 0.036803
v 0.323441 0.845774 0.036803
v 0.367495 0.565491 -0.000000
v 0.367495 0.845774 -0.000000
v -0.027392 0.107487 -0.027392
v 0.027405 0.107474 -0.027405
v -0.018149 0.892479 -0.018149
v 0.018145 0.892475 -0.018145
v 0.027397 0.107482 0.027397
v 0.018152 0.892482 0.018152
v -0.018149 0.892479 0.018149
v -0.027407 0.107472 0.027407
v -0.027596 0.572711 -0.047783
v 0.027710 0.572471 -0.048056
v -0.027710 0.608511 -0.048056
v 0.027596 0.608271 -0.047783
v -0.048385 0.572182 -0.027846
v -0.048102 0.608551 -0.027729
v -0.048102 0.572431 0.027728
v -0.048385 0.608800 0.027846
v 0.027596 0.572711 0.047783
v -0.027710 0.572471 0.048056
v 0.027710 0.608511 0.048056
v -0.027596 0.608271 0.047783
v 0.048385 0.608800 -0.027846
v 0.048102 0.572431 -0.027728
v 0.048102 0.608551 0.027728
v 0.048385 0.572182 0.027846
v -0.027596 0.802994 -0.047783
v 0.027710 0.802754 -0.048056
v -0.027710 0.838794 -0.048056
v 0.027596 0.838554 -0.047783
v -0.048385 0.802465 -0.027846
v -0.048102 0.838834 -0.027729
v 0.048385 0.839083 -0.027846
v 0.048102 0.802714 -0.027729
v 0.027596 0.802994 0.047783
v -0.027710 0.802754 0.048056
v 0.027710 0.838794 0.048056
v -0.027596 0.838554 0.047783
v 0.048102 0.838834 0.027728
v 0.048385 0.802465 0.027846
v -0.048102 0.802714 0.027728
v -0.048385 0.839083 0.027846
v -0.027596 0.007220 -0.047783
v 0.027710 0.006980 -0.048056
v -0.027710 0.093020 -0.048056
v 0.027596 0.092780 -0.047783
v -0.048385 0.006691 -0.027846
v -0.048102 0.093060 -0.027728
v -0.048102 0.006940 0.027728
v -0.048385 0.093309 0.027846
v 0.027596 0.007220 0.047783
v -0.027710 0.006980 0.048056
v 0.027710 0.093020 0.048056
v -0.027596 0.092780 0.047783
v 0.048385 0.093309 -0.027846
v 0.048102 0.006940 -0.027728
v 0.048102 0.093060 0.027728
v 0.048385 0.006691 0.027846
v 0.215196 0.845774 0.029912
v 0.215196 0.565491 0.029912
v 0.194529 0.845774 0.012646
v 0.194529 0.565491 0.012646
v 0.171142 0.565491 -0.006892
v 0.171142 0.845774 -0.006892
v 0.267594 0.565491 0.042293
v 0.267594 0.845774 0.042293
v 0.111846 0.565491 -0.020903
v 0.111846 0.845774 -0.020903
v 0.054275 0.565491 -0.007299
v 0.054275 0.845774 -0.007299
v 0.319992 0.565491 0.029912
v 0.319992 0.845774 0.029912
v 0.362687 0.565491 -0.005756
v 0.362687 0.845774 -0.005756
vn -0.0000 0.0118 -0.9999
vn 0.9999 0.0118 -0.0000
vn -0.0000 1.0000 -0.0000
vn -0.9999 0.0118 -0.0000
vn -0.0000 0.0118 0.9999
vn -0.3827 -0.0000 -0.9239
vn 0.3827 -0.0000 -0.9239
vn -0.9239 -0.0000 -0.3827
vn -0.9239 -0.0000 0.3827
vn 0.3827 -0.0000 0.9239
vn -0.3827 -0.0000 0.9239
vn 0.9239 -0.0000 -0.3827
vn 0.9239 -0.0000 0.3827
vn -0.0000 -1.0000 -0.0000
vn -0.3367 0.6588 0.6727
vn -0.4533 0.7071 0.5427
vn -0.3367 -0.6588 0.6727
vn -0.4533 -0.7071 0.5427
vn -0.2894 -0.7627 0.5784
vn -0.2894 0.7627 0.5784
vn -0.0000 -0.6588 0.7523
vn -0.0000 0.6588 0.7523
vn -0.0000 -0.7627 0.6467
vn -0.0000 0.7627 0.6467
vn -0.4291 -0.5774 0.6946
vn -0.4291 0.5774 0.6946
vn 0.3367 -0.6588 0.6727
vn 0.3367 0.6588 0.6727
vn 0.8132 -0.5774 0.0729
vn 0.8132 0.5774 0.0729
vn 0.0002 -0.0118 0.9999
vn -0.0001 -0.0118 0.9999
vn -0.9999 -0.0118 -0.0001
vn -0.9999 -0.0118 0.0002
vn -0.0001 -1.0000 0.0002
vn -0.0000 -1.0000 0.0001
vn 0.0001 -1.0000 -0.0000
vn 0.9999 -0.0118 0.0003
vn 0.9999 -0.0118 -0.0000
vn -0.0002 -0.0118 -0.9999
vn 0.0001 -0.0118 -0.9999
vn 0.3769 0.0083 0.9262
vn -0.3794 -0.0005 0.9252
vn 0.3794 0.0005 0.9252
vn -0.3769 -0.0083 0.9262
vn 0.9231 -0.0037 0.3844
vn 0.9241 -0.0053 0.3821
vn 0.9241 0.0053 -0.3821
vn 0.9231 0.0037 -0.3844
vn -0.3769 0.0083 -0.9262
vn 0.3794 -0.0005 -0.9252
vn -0.3794 0.0005 -0.9252
vn 0.3769 -0.0083 -0.9262
vn -0.9231 0.0037 0.3844
vn -0.9241 0.0053 0.3821
vn -0.9241 -0.0053 -0.3821
vn -0.9231 -0.0037 -0.3844
vn 0.0296 -0.9996 -0.0043
vn 0.0073 -1.0000 0.0017
vn 0.0043 -1.0000 0.0010
vn 0.0025 -1.0000 0.0003
vn -0.0025 -1.0000 -0.0003
vn -0.0043 -1.0000 -0.0010
vn -0.0073 -1.0000 -0.0017
vn -0.0296 -0.9996 0.0043
vn 0.0296 0.9996 0.0043
vn 0.0073 1.0000 -0.0017
vn 0.0043 1.0000 -0.0010
vn 0.0025 1.0000 -0.0003
vn -0.0025 1.0000 0.0003
vn -0.0043 1.0000 0.0010
vn -0.0073 1.0000 0.0017
vn -0.0296 0.9996 -0.0043
vn 0.3769 0.0034 0.9262
vn -0.3802 0.0015 0.9249
vn 0.3802 -0.0015 0.9249
vn -0.3769 -0.0034 0.9262
vn 0.9223 -0.0008 0.3864
vn 0.9236 -0.0013 0.3833
vn 0.9236 0.0013 -0.3833
vn 0.9223 0.0008 -0.3864
vn -0.3769 0.0034 -0.9262
vn 0.3802 0.0015 -0.9249
vn -0.3802 -0.0015 -0.9249
vn 0.3769 -0.0034 -0.9262
vn -0.9223 0.0008 0.3864
vn -0.9236 0.0013 0.3833
vn -0.9236 -0.0013 -0.3833
vn -0.9223 -0.0008 -0.3864
vn 0.0002 1.0000 -0.0001
vn -0.0000 1.0000 0.0001
vn -0.0002 1.0000 0.0003
vn 0.2894 0.7627 -0.5784
vn 0.2894 -0.7627 -0.5784
vn 0.4533 0.7071 -0.5427
vn 0.4533 -0.7071 -0.5427
vn 0.3367 -0.6588 -0.6727
vn 0.3367 0.6588 -0.6727
vn -0.0000 -0.7627 -0.6467
vn -0.0000 0.7627 -0.6467
vn -0.0000 -0.6588 -0.7523
vn -0.0000 0.6588 -0.7523
vn -0.6947 -0.5774 -0.4291
vn -0.6946 0.5774 -0.4291
vn -0.2894 -0.7627 -0.5784
vn -0.2894 0.7627 -0.5784
vn 0.0729 -0.5774 -0.8132
vn 0.0729 0.5774 -0.8132
vt 0.218750 0.025000
vt 0.218750 0.225000
vt 0.218750 0.075000
vt 0.218750 0.175000
vt 0.218750 0.125000
vt 0.593750 0.025000
vt 0.593750 0.425000
vt 0.593750 0.325000
s 1
usemtl colormap.001
f 1/1/1 3/2/1 2/1/1
f 4/2/1 2/1/1 3/2/1
f 2/1/2 4/2/2 5/1/2
f 6/2/2 5/1/2 4/2/2
f 4/2/3 3/2/3 6/2/3
f 7/2/3 6/2/3 3/2/3
f 1/1/4 8/1/4 3/2/4
f 7/2/4 3/2/4 8/1/4
f 5/1/5 6/2/5 8/1/5
f 7/2/5 8/1/5 6/2/5
f 9/3/6 11/4/6 10/3/7
f 12/4/7 10/3/7 11/4/6
f 13/3/8 15/3/9 14/4/8
f 16/4/9 14/4/8 15/3/9
f 17/3/10 19/4/10 18/3/11
f 20/4/11 18/3/11 19/4/10
f 21/4/12 23/4/13 22/3/12
f 24/3/13 22/3/12 23/4/13
f 23/4/13 19/4/10 24/3/13
f 17/3/10 24/3/13 19/4/10
f 15/3/9 18/3/11 16/4/9
f 20/4/11 16/4/9 18/3/11
f 12/4/7 21/4/12 10/3/7
f 22/3/12 10/3/7 21/4/12
f 9/3/6 13/3/8 11/4/6
f 14/4/8 11/4/6 13/3/8
f 21/4/3 12/4/3 23/4/3
f 19/4/3 23/4/3 12/4/3
f 11/4/3 19/4/3 12/4/3
f 20/4/3 19/4/3 11/4/3
f 14/4/3 20/4/3 11/4/3
f 16/4/3 20/4/3 14/4/3
f 24/3/14 17/3/14 22/3/14
f 10/3/14 22/3/14 17/3/14
f 18/3/14 10/3/14 17/3/14
f 9/3/14 10/3/14 18/3/14
f 15/3/14 9/3/14 18/3/14
f 13/3/14 9/3/14 15/3/14
f 25/5/6 27/4/6 26/5/7
f 28/4/7 26/5/7 27/4/6
f 25/5/6 29/5/8 27/4/6
f 30/4/8 27/4/6 29/5/8
f 28/4/7 31/4/12 26/5/7
f 32/5/12 26/5/7 31/4/12
f 33/5/10 35/4/10 34/5/11
f 36/4/11 34/5/11 35/4/10
f 31/4/12 37/4/13 32/5/12
f 38/5/13 32/5/12 37/4/13
f 37/4/13 35/4/10 38/5/13
f 33/5/10 38/5/13 35/4/10
f 29/5/8 39/5/9 30/4/8
f 40/4/9 30/4/8 39/5/9
f 39/5/9 34/5/11 40/4/9
f 36/4/11 40/4/9 34/5/11
f 31/4/3 28/4/3 37/4/3
f 35/4/3 37/4/3 28/4/3
f 27/4/3 35/4/3 28/4/3
f 36/4/3 35/4/3 27/4/3
f 30/4/3 36/4/3 27/4/3
f 40/4/3 36/4/3 30/4/3
f 38/5/14 33/5/14 32/5/14
f 26/5/14 32/5/14 33/5/14
f 34/5/14 26/5/14 33/5/14
f 25/5/14 26/5/14 34/5/14
f 39/5/14 25/5/14 34/5/14
f 29/5/14 25/5/14 39/5/14
f 41/3/6 43/4/6 42/3/7
f 44/4/7 42/3/7 43/4/6
f 45/3/8 47/3/9 46/4/8
f 48/4/9 46/4/8 47/3/9
f 49/3/10 51/4/10 50/3/11
f 52/4/11 50/3/11 51/4/10
f 53/4/12 55/4/13 54/3/12
f 56/3/13 54/3/12 55/4/13
f 55/4/13 51/4/10 56/3/13
f 49/3/10 56/3/13 51/4/10
f 47/3/9 50/3/11 48/4/9
f 52/4/11 48/4/9 50/3/11
f 44/4/7 53/4/12 42/3/7
f 54/3/12 42/3/7 53/4/12
f 41/3/6 45/3/8 43/4/6
f 46/4/8 43/4/6 45/3/8
f 53/4/3 44/4/3 55/4/3
f 51/4/3 55/4/3 44/4/3
f 43/4/3 51/4/3 44/4/3
f 52/4/3 51/4/3 43/4/3
f 46/4/3 52/4/3 43/4/3
f 48/4/3 52/4/3 46/4/3
f 56/3/14 49/3/14 54/3/14
f 42/3/14 54/3/14 49/3/14
f 50/3/14 42/3/14 49/3/14
f 41/3/14 42/3/14 50/3/14
f 47/3/14 41/3/14 50/3/14
f 45/3/14 41/3/14 47/3/14
f 2/6/14 5/6/14 1/6/14
f 8/6/14 1/6/14 5/6/14
f 57/7/15 59/7/16 58/8/17
f 60/8/18 58/8/17 59/7/16
f 60/8/18 59/7/16 61/8/19
f 62/7/20 61/8/19 59/7/16
f 63/8/21 64/7/22 58/8/17
f 57/7/15 58/8/17 64/7/22
f 65/8/23 61/8/19 66/7/24
f 62/7/20 66/7/24 61/8/19
f 65/8/23 66/7/24 67/8/25
f 68/7/26 67/8/25 66/7/24
f 69/8/27 70/7/28 63/8/21
f 64/7/22 63/8/21 70/7/28
f 69/8/27 71/8/29 70/7/28
f 72/7/30 70/7/28 71/8/29
f 73/1/31 74/1/31 75/2/32
f 76/2/32 75/2/32 74/1/31
f 74/1/33 77/1/33 76/2/34
f 78/2/34 76/2/34 77/1/33
f 76/2/35 78/2/36 75/2/36
f 79/2/37 75/2/36 78/2/36
f 73/1/38 75/2/39 80/1/38
f 79/2/39 80/1/38 75/2/39
f 77/1/40 80/1/40 78/2/41
f 79/2/41 78/2/41 80/1/40
f 81/3/42 82/3/43 83/4/44
f 84/4/45 83/4/44 82/3/43
f 85/3/46 86/4/47 87/3/48
f 88/4/49 87/3/48 86/4/47
f 89/3/50 90/3/51 91/4/52
f 92/4/53 91/4/52 90/3/51
f 93/4/54 94/3/55 95/4/56
f 96/3/57 95/4/56 94/3/55
f 95/4/56 96/3/57 91/4/52
f 89/3/50 91/4/52 96/3/57
f 87/3/48 88/4/49 90/3/51
f 92/4/53 90/3/51 88/4/49
f 84/4/45 82/3/43 93/4/54
f 94/3/55 93/4/54 82/3/43
f 81/3/42 83/4/44 85/3/46
f 86/4/47 85/3/46 83/4/44
f 93/4/58 95/4/59 84/4/60
f 91/4/61 84/4/60 95/4/59
f 83/4/62 84/4/60 91/4/61
f 92/4/63 83/4/62 91/4/61
f 86/4/64 83/4/62 92/4/63
f 88/4/65 86/4/64 92/4/63
f 96/3/66 94/3/67 89/3/68
f 82/3/69 89/3/68 94/3/67
f 90/3/70 89/3/68 82/3/69
f 81/3/71 90/3/70 82/3/69
f 87/3/72 90/3/70 81/3/71
f 85/3/73 87/3/72 81/3/71
f 97/5/42 98/5/43 99/4/44
f 100/4/45 99/4/44 98/5/43
f 97/5/42 99/4/44 101/5/46
f 102/4/47 101/5/46 99/4/44
f 100/4/45 98/5/43 103/4/54
f 104/5/55 103/4/54 98/5/43
f 105/5/50 106/5/51 107/4/52
f 108/4/53 107/4/52 106/5/51
f 103/4/54 104/5/55 109/4/56
f 110/5/57 109/4/56 104/5/55
f 109/4/56 110/5/57 107/4/52
f 105/5/50 107/4/52 110/5/57
f 101/5/46 102/4/47 111/5/48
f 112/4/49 111/5/48 102/4/47
f 111/5/48 112/4/49 106/5/51
f 108/4/53 106/5/51 112/4/49
f 103/4/58 109/4/59 100/4/60
f 107/4/61 100/4/60 109/4/59
f 99/4/62 100/4/60 107/4/61
f 108/4/63 99/4/62 107/4/61
f 102/4/64 99/4/62 108/4/63
f 112/4/65 102/4/64 108/4/63
f 110/5/66 104/5/67 105/5/68
f 98/5/69 105/5/68 104/5/67
f 106/5/70 105/5/68 98/5/69
f 97/5/71 106/5/70 98/5/69
f 111/5/72 106/5/70 97/5/71
f 101/5/73 111/5/72 97/5/71
f 113/3/74 114/3/75 115/4/76
f 116/4/77 115/4/76 114/3/75
f 117/3/78 118/4/79 119/3/80
f 120/4/81 119/3/80 118/4/79
f 121/3/82 122/3/83 123/4/84
f 124/4/85 123/4/84 122/3/83
f 125/4/86 126/3/87 127/4/88
f 128/3/89 127/4/88 126/3/87
f 127/4/88 128/3/89 123/4/84
f 121/3/82 123/4/84 128/3/89
f 119/3/80 120/4/81 122/3/83
f 124/4/85 122/3/83 120/4/81
f 116/4/77 114/3/75 125/4/86
f 126/3/87 125/4/86 114/3/75
f 113/3/74 115/4/76 117/3/78
f 118/4/79 117/3/78 115/4/76
f 125/4/58 127/4/59 116/4/60
f 123/4/61 116/4/60 127/4/59
f 115/4/62 116/4/60 123/4/61
f 124/4/63 115/4/62 123/4/61
f 118/4/64 115/4/62 124/4/63
f 120/4/65 118/4/64 124/4/63
f 128/3/66 126/3/67 121/3/68
f 114/3/69 121/3/68 126/3/67
f 122/3/70 121/3/68 114/3/69
f 113/3/71 122/3/70 114/3/69
f 119/3/72 122/3/70 113/3/71
f 117/3/73 119/3/72 113/3/71
f 74/6/90 73/6/91 77/6/91
f 80/6/92 77/6/91 73/6/91
f 129/7/93 130/8/94 131/7/95
f 132/8/96 131/7/95 130/8/94
f 132/8/96 133/8/97 131/7/95
f 134/7/98 131/7/95 133/8/97
f 135/8/99 130/8/94 136/7/100
f 129/7/93 136/7/100 130/8/94
f 137/8/101 138/7/102 133/8/97
f 134/7/98 133/8/97 138/7/102
f 137/8/101 139/8/103 138/7/102
f 140/7/104 138/7/102 139/8/103
f 141/8/105 135/8/99 142/7/106
f 136/7/100 142/7/106 135/8/99
f 141/8/105 142/7/106 143/8/107
f 144/7/108 143/8/107 142/7/106
f 59/7/16 57/7/15 129/7/93 131/7/95
f 58/8/17 60/8/18 132/8/96 130/8/94
f 60/8/18 61/8/19 133/8/97 132/8/96
f 62/7/20 59/7/16 131/7/95 134/7/98
f 63/8/21 58/8/17 130/8/94 135/8/99
f 57/7/15 64/7/22 136/7/100 129/7/93
f 61/8/19 65/8/23 137/8/101 133/8/97
f 66/7/24 62/7/20 134/7/98 138/7/102
f 65/8/23 67/8/25 139/8/103 137/8/101
f 68/7/26 66/7/24 138/7/102 140/7/104
f 67/8/25 68/7/26 140/7/104 139/8/103
f 69/8/27 63/8/21 135/8/99 141/8/105
f 64/7/22 70/7/28 142/7/106 136/7/100
f 71/8/29 69/8/27 141/8/105 143/8/107
f 72/7/30 71/8/29 143/8/107 144/7/108
f 70/7/28 72/7/30 144/7/108 142/7/106
